# xmcd CD database file
#
# Track frame offsets:
#	150
#	29250
#	45270
#	53895
#	75479
#	95393
#	131340
#
# Disc length: 2046 seconds
#
# Revision: 0
# Processed by: cddbd v1.5.2PL0 Copyright (c) Steve Scherf et al.
# Submitted via: CDex 1.85
#
DISCID=4707fc07
DTITLE=CloseQuartet - Italien Song Book
DYEAR=1900
DGENRE=Jazz
TTITLE0=Pigro
TTITLE1=E se domani
TTITLE2=Brava
TTITLE3=Un giorno dopo l'altro
TTITLE4=Sensa fine
TTITLE5=Quando Sicily
TTITLE6=Mio fratello che gaurdi il mondo
EXTD=
EXTT0=
EXTT1=
EXTT2=
EXTT3=
EXTT4=
EXTT5=
EXTT6=
PLAYORDER=
